# xmcd
#
# Track frame offsets:
#	150
#	15725
#	31187
#	40677
#	53312
#	65795
#	82700
#	99472
#	112652
#	125017
#	143122
#	159315
#	170965
#	188960
#
# Disc length: 2623 seconds
#
# Revision: 5
# Processed by: cddbd v1.5.1PL0 Copyright (c) Steve Scherf et al.
# Submitted via: audiograbber 1.83.01
#
DISCID=ab0a3d0e
DTITLE=Various Artist - Next Generation Swing [Volume 2] CD 1
DYEAR=1900
DGENRE=Swing
TTITLE0=The New Morty Show - White Wedding (Rebel Yell) Medley
TTITLE1=Hipster Daddy-O and The Hand Grenades - Daddy-O
TTITLE2=Wally's Swing World - All of Me
TTITLE3=Big Daddy Orchestra - Jump, Jive, An' Wail
TTITLE4=The Swingtips - The Business End of The Barrel
TTITLE5=Bill Elliot Swing Orchestra - Mildred, Won't You Behave
TTITLE6=Mitch Woods and His Rocket 88's - Golden Gate Jump
TTITLE7=Speak Easy Spies - Play it Cool
TTITLE8=Ray Condo And His Ricochets - Swing Brother Swing
TTITLE9=Ron Sunshine and Full Swing - Hit that Jive, Jack!
TTITLE10=The Graduates - Badsville
TTITLE11=The Senders - It's Obdacious
TTITLE12=Speak Easy Spies - Speak Real Low
TTITLE13=Wally's Swing World - Fly Me To The Moon
EXTD=Disk 1 of 2
EXTT0=The New Morty Show
EXTT1=Hipster Daddy-O and The Handgrenades
EXTT2=Wally's Swing World
EXTT3=Big Daddy Orchestra
EXTT4=The Swingtips
EXTT5=The Bill Elliot Swing Orchestra
EXTT6=Mitch Woods and His Rocket 88's
EXTT7=Speak Easy Spies
EXTT8=Ray Condo and His Ricochets
EXTT9=Ron Sunshine and Full Swing
EXTT10=The Graduates
EXTT11=The Senders
EXTT12=
EXTT13=Wally's Swing World
PLAYORDER=
